{
    "asset" : {
        "generator" : "Khronos glTF Blender I/O v3.2.43",
        "version" : "2.0"
    },
    "scene" : 0,
    "scenes" : [
        {
            "name" : "Scene",
            "nodes" : [
                0,
                1,
                2,
                3
            ]
        }
    ],
    "nodes" : [
        {
            "mesh" : 0,
            "name" : "glasses-rim",
            "rotation" : [
                0.7071068286895752,
                0,
                0,
                0.7071067094802856
            ],
            "scale" : [
                0.02539999969303608,
                0.08595146238803864,
                0.02539999969303608
            ],
            "translation" : [
                -15.613690376281738,
                1.8481826782226562,
                0.9410374164581299
            ]
        },
        {
            "mesh" : 1,
            "name" : "glasses-right",
            "rotation" : [
                0.7072510719299316,
                -0.020212309435009956,
                0.0005332073196768761,
                0.706673264503479
            ],
            "scale" : [
                0.07364736497402191,
                0.08558616787195206,
                0.02539999783039093
            ],
            "translation" : [
                14.705458641052246,
                2.158083438873291,
                0.9408496618270874
            ]
        },
        {
            "mesh" : 2,
            "name" : "glasses-glass",
            "scale" : [
                0.02539999969303608,
                0.02539999969303608,
                0.02539999969303608
            ],
            "translation" : [
                -8.245594024658203,
                -6.3917155265808105,
                1.0223138332366943
            ]
        },
        {
            "mesh" : 3,
            "name" : "glasses-left",
            "rotation" : [
                0.7072510719299316,
                -0.020212309435009956,
                0.0005332073196768761,
                0.706673264503479
            ],
            "scale" : [
                0.07364736497402191,
                0.08558616787195206,
                0.02539999783039093
            ],
            "translation" : [
                -15.525644302368164,
                1.9736721515655518,
                0.9402689933776855
            ]
        }
    ],
    "materials" : [
        {
            "doubleSided" : true,
            "name" : "Material #27",
            "pbrMetallicRoughness" : {
                "baseColorTexture" : {
                    "index" : 0
                },
                "metallicFactor" : 0,
                "roughnessFactor" : 0.5527864098548889
            }
        },
        {
            "doubleSided" : true,
            "name" : "Material #28",
            "pbrMetallicRoughness" : {
                "baseColorTexture" : {
                    "index" : 1
                },
                "metallicFactor" : 0,
                "roughnessFactor" : 0.5527864098548889
            }
        },
        {
            "doubleSided" : true,
            "name" : "Material #29",
            "pbrMetallicRoughness" : {
                "baseColorFactor" : [
                    0.5,
                    0.5,
                    0.5,
                    0.5920000076293945
                ],
                "metallicFactor" : 0,
                "roughnessFactor" : 0.5527864098548889
            }
        }
    ],
    "meshes" : [
        {
            "name" : "Mesh",
            "primitives" : [
                {
                    "attributes" : {
                        "POSITION" : 0,
                        "NORMAL" : 1,
                        "TEXCOORD_0" : 2
                    },
                    "indices" : 3,
                    "material" : 0
                }
            ]
        },
        {
            "name" : "Mesh.001",
            "primitives" : [
                {
                    "attributes" : {
                        "POSITION" : 4,
                        "NORMAL" : 5,
                        "TEXCOORD_0" : 6
                    },
                    "indices" : 7,
                    "material" : 1
                }
            ]
        },
        {
            "name" : "Mesh.002",
            "primitives" : [
                {
                    "attributes" : {
                        "POSITION" : 8,
                        "NORMAL" : 9,
                        "TEXCOORD_0" : 10
                    },
                    "indices" : 11,
                    "material" : 2
                }
            ]
        },
        {
            "name" : "Mesh.003",
            "primitives" : [
                {
                    "attributes" : {
                        "POSITION" : 12,
                        "NORMAL" : 13,
                        "TEXCOORD_0" : 14
                    },
                    "indices" : 15,
                    "material" : 1
                }
            ]
        }
    ],
    "textures" : [
        {
            "sampler" : 0,
            "source" : 0
        },
        {
            "sampler" : 0,
            "source" : 1
        }
    ],
    "images" : [
        {
            "bufferView" : 4,
            "mimeType" : "image/png",
            "name" : "glasses-texture"
        },
        {
            "bufferView" : 9,
            "mimeType" : "image/png",
            "name" : "left-right-glasses-texture"
        }
    ],
    "accessors" : [
        {
            "bufferView" : 0,
            "componentType" : 5126,
            "count" : 22158,
            "max" : [
                1221.3895263671875,
                5.6793060302734375,
                338.01025390625
            ],
            "min" : [
                -12.208815574645996,
                -6.2893195152282715,
                -56.746826171875
            ],
            "type" : "VEC3"
        },
        {
            "bufferView" : 1,
            "componentType" : 5126,
            "count" : 22158,
            "type" : "VEC3"
        },
        {
            "bufferView" : 2,
            "componentType" : 5126,
            "count" : 22158,
            "type" : "VEC2"
        },
        {
            "bufferView" : 3,
            "componentType" : 5123,
            "count" : 113856,
            "type" : "SCALAR"
        },
        {
            "bufferView" : 5,
            "componentType" : 5126,
            "count" : 16913,
            "max" : [
                6.127593994140625,
                0.8634204864501953,
                305.343994140625
            ],
            "min" : [
                0.2269287109375,
                -303.1310729980469,
                -20.34337043762207
            ],
            "type" : "VEC3"
        },
        {
            "bufferView" : 6,
            "componentType" : 5126,
            "count" : 16913,
            "type" : "VEC3"
        },
        {
            "bufferView" : 7,
            "componentType" : 5126,
            "count" : 16913,
            "type" : "VEC2"
        },
        {
            "bufferView" : 8,
            "componentType" : 5123,
            "count" : 87456,
            "type" : "SCALAR"
        },
        {
            "bufferView" : 10,
            "componentType" : 5126,
            "count" : 412,
            "max" : [
                856.4682006835938,
                368.37847900390625,
                2.721797227859497
            ],
            "min" : [
                -225.69232177734375,
                0,
                -2.721797227859497
            ],
            "type" : "VEC3"
        },
        {
            "bufferView" : 11,
            "componentType" : 5126,
            "count" : 412,
            "type" : "VEC3"
        },
        {
            "bufferView" : 12,
            "componentType" : 5126,
            "count" : 412,
            "type" : "VEC2"
        },
        {
            "bufferView" : 13,
            "componentType" : 5123,
            "count" : 1344,
            "type" : "SCALAR"
        },
        {
            "bufferView" : 14,
            "componentType" : 5126,
            "count" : 16913,
            "max" : [
                0.52337646484375,
                0.4698944091796875,
                302.1387939453125
            ],
            "min" : [
                -5.377288818359375,
                -303.52459716796875,
                -23.548566818237305
            ],
            "type" : "VEC3"
        },
        {
            "bufferView" : 15,
            "componentType" : 5126,
            "count" : 16913,
            "type" : "VEC3"
        },
        {
            "bufferView" : 16,
            "componentType" : 5126,
            "count" : 16913,
            "type" : "VEC2"
        },
        {
            "bufferView" : 17,
            "componentType" : 5123,
            "count" : 87456,
            "type" : "SCALAR"
        }
    ],
    "bufferViews" : [
        {
            "buffer" : 0,
            "byteLength" : 265896,
            "byteOffset" : 0
        },
        {
            "buffer" : 0,
            "byteLength" : 265896,
            "byteOffset" : 265896
        },
        {
            "buffer" : 0,
            "byteLength" : 177264,
            "byteOffset" : 531792
        },
        {
            "buffer" : 0,
            "byteLength" : 227712,
            "byteOffset" : 709056
        },
        {
            "buffer" : 0,
            "byteLength" : 44990,
            "byteOffset" : 936768
        },
        {
            "buffer" : 0,
            "byteLength" : 202956,
            "byteOffset" : 981760
        },
        {
            "buffer" : 0,
            "byteLength" : 202956,
            "byteOffset" : 1184716
        },
        {
            "buffer" : 0,
            "byteLength" : 135304,
            "byteOffset" : 1387672
        },
        {
            "buffer" : 0,
            "byteLength" : 174912,
            "byteOffset" : 1522976
        },
        {
            "buffer" : 0,
            "byteLength" : 370295,
            "byteOffset" : 1697888
        },
        {
            "buffer" : 0,
            "byteLength" : 4944,
            "byteOffset" : 2068184
        },
        {
            "buffer" : 0,
            "byteLength" : 4944,
            "byteOffset" : 2073128
        },
        {
            "buffer" : 0,
            "byteLength" : 3296,
            "byteOffset" : 2078072
        },
        {
            "buffer" : 0,
            "byteLength" : 2688,
            "byteOffset" : 2081368
        },
        {
            "buffer" : 0,
            "byteLength" : 202956,
            "byteOffset" : 2084056
        },
        {
            "buffer" : 0,
            "byteLength" : 202956,
            "byteOffset" : 2287012
        },
        {
            "buffer" : 0,
            "byteLength" : 135304,
            "byteOffset" : 2489968
        },
        {
            "buffer" : 0,
            "byteLength" : 174912,
            "byteOffset" : 2625272
        }
    ],
    "samplers" : [
        {
            "magFilter" : 9729,
            "minFilter" : 9987
        }
    ],
    "buffers" : [
        {
            "byteLength" : 2800184,
            "uri" : "data:application/octet-stream;base64,"
        }
    ]
}
